<mxfile host="app.diagrams.net" agent="Mozilla/5.0 (Windows NT 10.0; Win64; x64) AppleWebKit/537.36 (KHTML, like Gecko) Chrome/131.0.0.0 Safari/537.36" version="25.0.3">
  <diagram name="Page-1" id="9f46799a-70d6-7492-0946-bef42562c5a5">
    <mxGraphModel dx="1195" dy="622" grid="1" gridSize="10" guides="1" tooltips="1" connect="1" arrows="1" fold="1" page="1" pageScale="1" pageWidth="1100" pageHeight="850" background="none" math="0" shadow="0">
      <root>
        <mxCell id="0" />
        <mxCell id="1" parent="0" />
        <mxCell id="EsuTO7CVdzKNP3imB1wy-1" value="&lt;div style=&quot;color: rgb(204, 204, 204); background-color: rgb(31, 31, 31); font-family: Consolas, &amp;quot;Courier New&amp;quot;, monospace; font-size: 14px; line-height: 19px; white-space: pre;&quot;&gt;&lt;span style=&quot;color: #569cd6;&quot;&gt;struct&lt;/span&gt; &lt;span style=&quot;color: #4ec9b0;&quot;&gt;gcov_ctr_info&lt;/span&gt;&lt;/div&gt;" style="swimlane;fontStyle=0;childLayout=stackLayout;horizontal=1;startSize=26;fillColor=none;horizontalStack=0;resizeParent=1;resizeParentMax=0;resizeLast=0;collapsible=1;marginBottom=0;whiteSpace=wrap;html=1;" vertex="1" parent="1">
          <mxGeometry x="830" y="200" width="240" height="104" as="geometry" />
        </mxCell>
        <mxCell id="EsuTO7CVdzKNP3imB1wy-2" value="&lt;div style=&quot;color: rgb(204, 204, 204); background-color: rgb(31, 31, 31); font-family: Consolas, &amp;quot;Courier New&amp;quot;, monospace; font-size: 14px; line-height: 19px; white-space: pre;&quot;&gt;&lt;span style=&quot;color: #4ec9b0;&quot;&gt;gcov_unsigned_t&lt;/span&gt; &lt;span style=&quot;color: #9cdcfe;&quot;&gt;num&lt;/span&gt;;&lt;/div&gt;" style="text;strokeColor=none;fillColor=none;align=left;verticalAlign=top;spacingLeft=4;spacingRight=4;overflow=hidden;rotatable=0;points=[[0,0.5],[1,0.5]];portConstraint=eastwest;whiteSpace=wrap;html=1;" vertex="1" parent="EsuTO7CVdzKNP3imB1wy-1">
          <mxGeometry y="26" width="240" height="26" as="geometry" />
        </mxCell>
        <mxCell id="EsuTO7CVdzKNP3imB1wy-3" value="&lt;div style=&quot;color: rgb(204, 204, 204); background-color: rgb(31, 31, 31); font-family: Consolas, &amp;quot;Courier New&amp;quot;, monospace; font-size: 14px; line-height: 19px; white-space: pre;&quot;&gt;&lt;span style=&quot;color: #4ec9b0;&quot;&gt;gcov_type&lt;/span&gt; &lt;span style=&quot;color: #d4d4d4;&quot;&gt;*&lt;/span&gt;&lt;span style=&quot;color: #9cdcfe;&quot;&gt;values&lt;/span&gt;;&lt;/div&gt;" style="text;strokeColor=none;fillColor=none;align=left;verticalAlign=top;spacingLeft=4;spacingRight=4;overflow=hidden;rotatable=0;points=[[0,0.5],[1,0.5]];portConstraint=eastwest;whiteSpace=wrap;html=1;" vertex="1" parent="EsuTO7CVdzKNP3imB1wy-1">
          <mxGeometry y="52" width="240" height="26" as="geometry" />
        </mxCell>
        <mxCell id="EsuTO7CVdzKNP3imB1wy-4" value="+ field: type" style="text;strokeColor=none;fillColor=none;align=left;verticalAlign=top;spacingLeft=4;spacingRight=4;overflow=hidden;rotatable=0;points=[[0,0.5],[1,0.5]];portConstraint=eastwest;whiteSpace=wrap;html=1;" vertex="1" parent="EsuTO7CVdzKNP3imB1wy-1">
          <mxGeometry y="78" width="240" height="26" as="geometry" />
        </mxCell>
        <mxCell id="EsuTO7CVdzKNP3imB1wy-5" value="&lt;div style=&quot;color: rgb(204, 204, 204); background-color: rgb(31, 31, 31); font-family: Consolas, &amp;quot;Courier New&amp;quot;, monospace; font-size: 14px; line-height: 19px; white-space: pre;&quot;&gt;&lt;span style=&quot;color: #569cd6;&quot;&gt;struct&lt;/span&gt; &lt;span style=&quot;color: #4ec9b0;&quot;&gt;gcov_fn_info&lt;/span&gt;&lt;/div&gt;" style="swimlane;fontStyle=0;childLayout=stackLayout;horizontal=1;startSize=26;fillColor=none;horizontalStack=0;resizeParent=1;resizeParentMax=0;resizeLast=0;collapsible=1;marginBottom=0;whiteSpace=wrap;html=1;" vertex="1" parent="1">
          <mxGeometry x="310" y="310" width="310" height="156" as="geometry" />
        </mxCell>
        <mxCell id="EsuTO7CVdzKNP3imB1wy-6" value="&lt;div style=&quot;color: rgb(204, 204, 204); background-color: rgb(31, 31, 31); font-family: Consolas, &amp;quot;Courier New&amp;quot;, monospace; font-size: 14px; line-height: 19px; white-space: pre;&quot;&gt;&lt;span style=&quot;color: #569cd6;&quot;&gt;const&lt;/span&gt; &lt;span style=&quot;color: #569cd6;&quot;&gt;struct&lt;/span&gt; &lt;span style=&quot;color: #4ec9b0;&quot;&gt;gcov_info&lt;/span&gt; &lt;span style=&quot;color: #d4d4d4;&quot;&gt;*&lt;/span&gt;&lt;span style=&quot;color: #4fc1ff;&quot;&gt;key&lt;/span&gt;;&lt;/div&gt;" style="text;strokeColor=none;fillColor=none;align=left;verticalAlign=top;spacingLeft=4;spacingRight=4;overflow=hidden;rotatable=0;points=[[0,0.5],[1,0.5]];portConstraint=eastwest;whiteSpace=wrap;html=1;" vertex="1" parent="EsuTO7CVdzKNP3imB1wy-5">
          <mxGeometry y="26" width="310" height="26" as="geometry" />
        </mxCell>
        <mxCell id="EsuTO7CVdzKNP3imB1wy-7" value="&lt;div style=&quot;color: rgb(204, 204, 204); background-color: rgb(31, 31, 31); font-family: Consolas, &amp;quot;Courier New&amp;quot;, monospace; font-size: 14px; line-height: 19px; white-space: pre;&quot;&gt;&lt;span style=&quot;color: #4ec9b0;&quot;&gt;gcov_unsigned_t&lt;/span&gt; &lt;span style=&quot;color: #9cdcfe;&quot;&gt;ident&lt;/span&gt;;&lt;/div&gt;" style="text;strokeColor=none;fillColor=none;align=left;verticalAlign=top;spacingLeft=4;spacingRight=4;overflow=hidden;rotatable=0;points=[[0,0.5],[1,0.5]];portConstraint=eastwest;whiteSpace=wrap;html=1;" vertex="1" parent="EsuTO7CVdzKNP3imB1wy-5">
          <mxGeometry y="52" width="310" height="26" as="geometry" />
        </mxCell>
        <mxCell id="EsuTO7CVdzKNP3imB1wy-8" value="&lt;div style=&quot;color: rgb(204, 204, 204); background-color: rgb(31, 31, 31); font-family: Consolas, &amp;quot;Courier New&amp;quot;, monospace; font-size: 14px; line-height: 19px; white-space: pre;&quot;&gt;&lt;span style=&quot;color: #4ec9b0;&quot;&gt;gcov_unsigned_t&lt;/span&gt; &lt;span style=&quot;color: #9cdcfe;&quot;&gt;lineno_checksum&lt;/span&gt;;&lt;/div&gt;" style="text;strokeColor=none;fillColor=none;align=left;verticalAlign=top;spacingLeft=4;spacingRight=4;overflow=hidden;rotatable=0;points=[[0,0.5],[1,0.5]];portConstraint=eastwest;whiteSpace=wrap;html=1;" vertex="1" parent="EsuTO7CVdzKNP3imB1wy-5">
          <mxGeometry y="78" width="310" height="26" as="geometry" />
        </mxCell>
        <mxCell id="EsuTO7CVdzKNP3imB1wy-9" value="&lt;div style=&quot;color: rgb(204, 204, 204); background-color: rgb(31, 31, 31); font-family: Consolas, &amp;quot;Courier New&amp;quot;, monospace; font-size: 14px; line-height: 19px; white-space: pre;&quot;&gt;&lt;span style=&quot;color: #4ec9b0;&quot;&gt;gcov_unsigned_t&lt;/span&gt; &lt;span style=&quot;color: #9cdcfe;&quot;&gt;cfg_checksum&lt;/span&gt;;&lt;/div&gt;" style="text;strokeColor=none;fillColor=none;align=left;verticalAlign=top;spacingLeft=4;spacingRight=4;overflow=hidden;rotatable=0;points=[[0,0.5],[1,0.5]];portConstraint=eastwest;whiteSpace=wrap;html=1;" vertex="1" parent="EsuTO7CVdzKNP3imB1wy-5">
          <mxGeometry y="104" width="310" height="26" as="geometry" />
        </mxCell>
        <mxCell id="EsuTO7CVdzKNP3imB1wy-10" value="&lt;div style=&quot;color: rgb(204, 204, 204); background-color: rgb(31, 31, 31); font-family: Consolas, &amp;quot;Courier New&amp;quot;, monospace; font-size: 14px; line-height: 19px; white-space: pre;&quot;&gt;&lt;span style=&quot;color: #569cd6;&quot;&gt;struct&lt;/span&gt; &lt;span style=&quot;color: #4ec9b0;&quot;&gt;gcov_ctr_info&lt;/span&gt; &lt;span style=&quot;color: #9cdcfe;&quot;&gt;ctrs&lt;/span&gt;[&lt;span style=&quot;color: #b5cea8;&quot;&gt;1&lt;/span&gt;];&lt;/div&gt;" style="text;strokeColor=none;fillColor=none;align=left;verticalAlign=top;spacingLeft=4;spacingRight=4;overflow=hidden;rotatable=0;points=[[0,0.5],[1,0.5]];portConstraint=eastwest;whiteSpace=wrap;html=1;" vertex="1" parent="EsuTO7CVdzKNP3imB1wy-5">
          <mxGeometry y="130" width="310" height="26" as="geometry" />
        </mxCell>
        <mxCell id="EsuTO7CVdzKNP3imB1wy-11" value="&lt;div style=&quot;color: rgb(204, 204, 204); background-color: rgb(31, 31, 31); font-family: Consolas, &amp;quot;Courier New&amp;quot;, monospace; font-size: 14px; line-height: 19px; white-space: pre;&quot;&gt;&lt;span style=&quot;color: #569cd6;&quot;&gt;struct&lt;/span&gt; &lt;span style=&quot;color: #4ec9b0;&quot;&gt;gcov_info&lt;/span&gt;&lt;/div&gt;" style="swimlane;fontStyle=0;childLayout=stackLayout;horizontal=1;startSize=26;fillColor=none;horizontalStack=0;resizeParent=1;resizeParentMax=0;resizeLast=0;collapsible=1;marginBottom=0;whiteSpace=wrap;html=1;" vertex="1" parent="1">
          <mxGeometry x="90" y="540" width="330" height="208" as="geometry" />
        </mxCell>
        <mxCell id="EsuTO7CVdzKNP3imB1wy-12" value="&lt;div style=&quot;color: rgb(204, 204, 204); background-color: rgb(31, 31, 31); font-family: Consolas, &amp;quot;Courier New&amp;quot;, monospace; font-size: 14px; line-height: 19px; white-space: pre;&quot;&gt;&lt;span style=&quot;color: #4ec9b0;&quot;&gt;gcov_unsigned_t&lt;/span&gt; &lt;span style=&quot;color: #9cdcfe;&quot;&gt;version&lt;/span&gt;;&lt;/div&gt;" style="text;strokeColor=none;fillColor=none;align=left;verticalAlign=top;spacingLeft=4;spacingRight=4;overflow=hidden;rotatable=0;points=[[0,0.5],[1,0.5]];portConstraint=eastwest;whiteSpace=wrap;html=1;" vertex="1" parent="EsuTO7CVdzKNP3imB1wy-11">
          <mxGeometry y="26" width="330" height="26" as="geometry" />
        </mxCell>
        <mxCell id="EsuTO7CVdzKNP3imB1wy-13" value="&lt;div style=&quot;color: rgb(204, 204, 204); background-color: rgb(31, 31, 31); font-family: Consolas, &amp;quot;Courier New&amp;quot;, monospace; font-size: 14px; line-height: 19px; white-space: pre;&quot;&gt;&lt;span style=&quot;color: #569cd6;&quot;&gt;struct&lt;/span&gt; &lt;span style=&quot;color: #4ec9b0;&quot;&gt;gcov_info&lt;/span&gt; &lt;span style=&quot;color: #d4d4d4;&quot;&gt;*&lt;/span&gt;&lt;span style=&quot;color: #9cdcfe;&quot;&gt;next&lt;/span&gt;;&lt;/div&gt;" style="text;strokeColor=none;fillColor=none;align=left;verticalAlign=top;spacingLeft=4;spacingRight=4;overflow=hidden;rotatable=0;points=[[0,0.5],[1,0.5]];portConstraint=eastwest;whiteSpace=wrap;html=1;" vertex="1" parent="EsuTO7CVdzKNP3imB1wy-11">
          <mxGeometry y="52" width="330" height="26" as="geometry" />
        </mxCell>
        <mxCell id="EsuTO7CVdzKNP3imB1wy-14" value="&lt;div style=&quot;color: rgb(204, 204, 204); background-color: rgb(31, 31, 31); font-family: Consolas, &amp;quot;Courier New&amp;quot;, monospace; font-size: 14px; line-height: 19px; white-space: pre;&quot;&gt;&lt;span style=&quot;color: #4ec9b0;&quot;&gt;gcov_unsigned_t&lt;/span&gt; &lt;span style=&quot;color: #9cdcfe;&quot;&gt;stamp&lt;/span&gt;;&lt;/div&gt;" style="text;strokeColor=none;fillColor=none;align=left;verticalAlign=top;spacingLeft=4;spacingRight=4;overflow=hidden;rotatable=0;points=[[0,0.5],[1,0.5]];portConstraint=eastwest;whiteSpace=wrap;html=1;" vertex="1" parent="EsuTO7CVdzKNP3imB1wy-11">
          <mxGeometry y="78" width="330" height="26" as="geometry" />
        </mxCell>
        <mxCell id="EsuTO7CVdzKNP3imB1wy-15" value="&lt;div style=&quot;color: rgb(204, 204, 204); background-color: rgb(31, 31, 31); font-family: Consolas, &amp;quot;Courier New&amp;quot;, monospace; font-size: 14px; line-height: 19px; white-space: pre;&quot;&gt;&lt;span style=&quot;color: #569cd6;&quot;&gt;const&lt;/span&gt; &lt;span style=&quot;color: #569cd6;&quot;&gt;char&lt;/span&gt; &lt;span style=&quot;color: #d4d4d4;&quot;&gt;*&lt;/span&gt;&lt;span style=&quot;color: #4fc1ff;&quot;&gt;filename&lt;/span&gt;;&lt;/div&gt;" style="text;strokeColor=none;fillColor=none;align=left;verticalAlign=top;spacingLeft=4;spacingRight=4;overflow=hidden;rotatable=0;points=[[0,0.5],[1,0.5]];portConstraint=eastwest;whiteSpace=wrap;html=1;" vertex="1" parent="EsuTO7CVdzKNP3imB1wy-11">
          <mxGeometry y="104" width="330" height="26" as="geometry" />
        </mxCell>
        <mxCell id="EsuTO7CVdzKNP3imB1wy-16" value="&lt;div style=&quot;color: rgb(204, 204, 204); background-color: rgb(31, 31, 31); font-family: Consolas, &amp;quot;Courier New&amp;quot;, monospace; font-size: 14px; line-height: 19px; white-space: pre;&quot;&gt;&lt;span style=&quot;color: #4ec9b0;&quot;&gt;gcov_merge_fn&lt;/span&gt; &lt;span style=&quot;color: #9cdcfe;&quot;&gt;merge&lt;/span&gt;[&lt;span style=&quot;color: #569cd6;&quot;&gt;GCOV_COUNTERS&lt;/span&gt;];&lt;/div&gt;" style="text;strokeColor=none;fillColor=none;align=left;verticalAlign=top;spacingLeft=4;spacingRight=4;overflow=hidden;rotatable=0;points=[[0,0.5],[1,0.5]];portConstraint=eastwest;whiteSpace=wrap;html=1;" vertex="1" parent="EsuTO7CVdzKNP3imB1wy-11">
          <mxGeometry y="130" width="330" height="26" as="geometry" />
        </mxCell>
        <mxCell id="EsuTO7CVdzKNP3imB1wy-17" value="&lt;div style=&quot;color: rgb(204, 204, 204); background-color: rgb(31, 31, 31); font-family: Consolas, &amp;quot;Courier New&amp;quot;, monospace; font-size: 14px; line-height: 19px; white-space: pre;&quot;&gt;&lt;span style=&quot;color: #569cd6;&quot;&gt;unsigned&lt;/span&gt; &lt;span style=&quot;color: #9cdcfe;&quot;&gt;n_functions&lt;/span&gt;;&lt;/div&gt;" style="text;strokeColor=none;fillColor=none;align=left;verticalAlign=top;spacingLeft=4;spacingRight=4;overflow=hidden;rotatable=0;points=[[0,0.5],[1,0.5]];portConstraint=eastwest;whiteSpace=wrap;html=1;" vertex="1" parent="EsuTO7CVdzKNP3imB1wy-11">
          <mxGeometry y="156" width="330" height="26" as="geometry" />
        </mxCell>
        <mxCell id="EsuTO7CVdzKNP3imB1wy-18" value="&lt;div style=&quot;color: rgb(204, 204, 204); background-color: rgb(31, 31, 31); font-family: Consolas, &amp;quot;Courier New&amp;quot;, monospace; font-size: 14px; line-height: 19px; white-space: pre;&quot;&gt;&lt;span style=&quot;color: #569cd6;&quot;&gt;struct&lt;/span&gt; &lt;span style=&quot;color: #4ec9b0;&quot;&gt;gcov_fn_info&lt;/span&gt; &lt;span style=&quot;color: #d4d4d4;&quot;&gt;**&lt;/span&gt;&lt;span style=&quot;color: #9cdcfe;&quot;&gt;functions&lt;/span&gt;;&lt;/div&gt;" style="text;strokeColor=none;fillColor=none;align=left;verticalAlign=top;spacingLeft=4;spacingRight=4;overflow=hidden;rotatable=0;points=[[0,0.5],[1,0.5]];portConstraint=eastwest;whiteSpace=wrap;html=1;" vertex="1" parent="EsuTO7CVdzKNP3imB1wy-11">
          <mxGeometry y="182" width="330" height="26" as="geometry" />
        </mxCell>
        <mxCell id="EsuTO7CVdzKNP3imB1wy-19" value="&lt;div style=&quot;color: rgb(204, 204, 204); background-color: rgb(31, 31, 31); font-family: Consolas, &amp;quot;Courier New&amp;quot;, monospace; font-size: 14px; line-height: 19px; white-space: pre;&quot;&gt;&lt;span style=&quot;color: #569cd6;&quot;&gt;struct&lt;/span&gt; &lt;span style=&quot;color: #4ec9b0;&quot;&gt;gcov_info&lt;/span&gt;&lt;/div&gt;" style="swimlane;fontStyle=0;childLayout=stackLayout;horizontal=1;startSize=26;fillColor=none;horizontalStack=0;resizeParent=1;resizeParentMax=0;resizeLast=0;collapsible=1;marginBottom=0;whiteSpace=wrap;html=1;" vertex="1" parent="1">
          <mxGeometry x="480" y="540" width="330" height="208" as="geometry" />
        </mxCell>
        <mxCell id="EsuTO7CVdzKNP3imB1wy-20" value="&lt;div style=&quot;color: rgb(204, 204, 204); background-color: rgb(31, 31, 31); font-family: Consolas, &amp;quot;Courier New&amp;quot;, monospace; font-size: 14px; line-height: 19px; white-space: pre;&quot;&gt;&lt;span style=&quot;color: #4ec9b0;&quot;&gt;gcov_unsigned_t&lt;/span&gt; &lt;span style=&quot;color: #9cdcfe;&quot;&gt;version&lt;/span&gt;;&lt;/div&gt;" style="text;strokeColor=none;fillColor=none;align=left;verticalAlign=top;spacingLeft=4;spacingRight=4;overflow=hidden;rotatable=0;points=[[0,0.5],[1,0.5]];portConstraint=eastwest;whiteSpace=wrap;html=1;" vertex="1" parent="EsuTO7CVdzKNP3imB1wy-19">
          <mxGeometry y="26" width="330" height="26" as="geometry" />
        </mxCell>
        <mxCell id="EsuTO7CVdzKNP3imB1wy-21" value="&lt;div style=&quot;color: rgb(204, 204, 204); background-color: rgb(31, 31, 31); font-family: Consolas, &amp;quot;Courier New&amp;quot;, monospace; font-size: 14px; line-height: 19px; white-space: pre;&quot;&gt;&lt;span style=&quot;color: #569cd6;&quot;&gt;struct&lt;/span&gt; &lt;span style=&quot;color: #4ec9b0;&quot;&gt;gcov_info&lt;/span&gt; &lt;span style=&quot;color: #d4d4d4;&quot;&gt;*&lt;/span&gt;&lt;span style=&quot;color: #9cdcfe;&quot;&gt;next&lt;/span&gt;;&lt;/div&gt;" style="text;strokeColor=none;fillColor=none;align=left;verticalAlign=top;spacingLeft=4;spacingRight=4;overflow=hidden;rotatable=0;points=[[0,0.5],[1,0.5]];portConstraint=eastwest;whiteSpace=wrap;html=1;" vertex="1" parent="EsuTO7CVdzKNP3imB1wy-19">
          <mxGeometry y="52" width="330" height="26" as="geometry" />
        </mxCell>
        <mxCell id="EsuTO7CVdzKNP3imB1wy-22" value="&lt;div style=&quot;color: rgb(204, 204, 204); background-color: rgb(31, 31, 31); font-family: Consolas, &amp;quot;Courier New&amp;quot;, monospace; font-size: 14px; line-height: 19px; white-space: pre;&quot;&gt;&lt;span style=&quot;color: #4ec9b0;&quot;&gt;gcov_unsigned_t&lt;/span&gt; &lt;span style=&quot;color: #9cdcfe;&quot;&gt;stamp&lt;/span&gt;;&lt;/div&gt;" style="text;strokeColor=none;fillColor=none;align=left;verticalAlign=top;spacingLeft=4;spacingRight=4;overflow=hidden;rotatable=0;points=[[0,0.5],[1,0.5]];portConstraint=eastwest;whiteSpace=wrap;html=1;" vertex="1" parent="EsuTO7CVdzKNP3imB1wy-19">
          <mxGeometry y="78" width="330" height="26" as="geometry" />
        </mxCell>
        <mxCell id="EsuTO7CVdzKNP3imB1wy-23" value="&lt;div style=&quot;color: rgb(204, 204, 204); background-color: rgb(31, 31, 31); font-family: Consolas, &amp;quot;Courier New&amp;quot;, monospace; font-size: 14px; line-height: 19px; white-space: pre;&quot;&gt;&lt;span style=&quot;color: #569cd6;&quot;&gt;const&lt;/span&gt; &lt;span style=&quot;color: #569cd6;&quot;&gt;char&lt;/span&gt; &lt;span style=&quot;color: #d4d4d4;&quot;&gt;*&lt;/span&gt;&lt;span style=&quot;color: #4fc1ff;&quot;&gt;filename&lt;/span&gt;;&lt;/div&gt;" style="text;strokeColor=none;fillColor=none;align=left;verticalAlign=top;spacingLeft=4;spacingRight=4;overflow=hidden;rotatable=0;points=[[0,0.5],[1,0.5]];portConstraint=eastwest;whiteSpace=wrap;html=1;" vertex="1" parent="EsuTO7CVdzKNP3imB1wy-19">
          <mxGeometry y="104" width="330" height="26" as="geometry" />
        </mxCell>
        <mxCell id="EsuTO7CVdzKNP3imB1wy-24" value="&lt;div style=&quot;color: rgb(204, 204, 204); background-color: rgb(31, 31, 31); font-family: Consolas, &amp;quot;Courier New&amp;quot;, monospace; font-size: 14px; line-height: 19px; white-space: pre;&quot;&gt;&lt;span style=&quot;color: #4ec9b0;&quot;&gt;gcov_merge_fn&lt;/span&gt; &lt;span style=&quot;color: #9cdcfe;&quot;&gt;merge&lt;/span&gt;[&lt;span style=&quot;color: #569cd6;&quot;&gt;GCOV_COUNTERS&lt;/span&gt;];&lt;/div&gt;" style="text;strokeColor=none;fillColor=none;align=left;verticalAlign=top;spacingLeft=4;spacingRight=4;overflow=hidden;rotatable=0;points=[[0,0.5],[1,0.5]];portConstraint=eastwest;whiteSpace=wrap;html=1;" vertex="1" parent="EsuTO7CVdzKNP3imB1wy-19">
          <mxGeometry y="130" width="330" height="26" as="geometry" />
        </mxCell>
        <mxCell id="EsuTO7CVdzKNP3imB1wy-25" value="&lt;div style=&quot;color: rgb(204, 204, 204); background-color: rgb(31, 31, 31); font-family: Consolas, &amp;quot;Courier New&amp;quot;, monospace; font-size: 14px; line-height: 19px; white-space: pre;&quot;&gt;&lt;span style=&quot;color: #569cd6;&quot;&gt;unsigned&lt;/span&gt; &lt;span style=&quot;color: #9cdcfe;&quot;&gt;n_functions&lt;/span&gt;;&lt;/div&gt;" style="text;strokeColor=none;fillColor=none;align=left;verticalAlign=top;spacingLeft=4;spacingRight=4;overflow=hidden;rotatable=0;points=[[0,0.5],[1,0.5]];portConstraint=eastwest;whiteSpace=wrap;html=1;" vertex="1" parent="EsuTO7CVdzKNP3imB1wy-19">
          <mxGeometry y="156" width="330" height="26" as="geometry" />
        </mxCell>
        <mxCell id="EsuTO7CVdzKNP3imB1wy-26" value="&lt;div style=&quot;color: rgb(204, 204, 204); background-color: rgb(31, 31, 31); font-family: Consolas, &amp;quot;Courier New&amp;quot;, monospace; font-size: 14px; line-height: 19px; white-space: pre;&quot;&gt;&lt;span style=&quot;color: #569cd6;&quot;&gt;struct&lt;/span&gt; &lt;span style=&quot;color: #4ec9b0;&quot;&gt;gcov_fn_info&lt;/span&gt; &lt;span style=&quot;color: #d4d4d4;&quot;&gt;**&lt;/span&gt;&lt;span style=&quot;color: #9cdcfe;&quot;&gt;functions&lt;/span&gt;;&lt;/div&gt;" style="text;strokeColor=none;fillColor=none;align=left;verticalAlign=top;spacingLeft=4;spacingRight=4;overflow=hidden;rotatable=0;points=[[0,0.5],[1,0.5]];portConstraint=eastwest;whiteSpace=wrap;html=1;" vertex="1" parent="EsuTO7CVdzKNP3imB1wy-19">
          <mxGeometry y="182" width="330" height="26" as="geometry" />
        </mxCell>
        <mxCell id="EsuTO7CVdzKNP3imB1wy-27" value="&lt;div style=&quot;color: rgb(204, 204, 204); background-color: rgb(31, 31, 31); font-family: Consolas, &amp;quot;Courier New&amp;quot;, monospace; font-size: 14px; line-height: 19px; white-space: pre;&quot;&gt;&lt;span style=&quot;color: #569cd6;&quot;&gt;struct&lt;/span&gt; &lt;span style=&quot;color: #4ec9b0;&quot;&gt;gcov_info&lt;/span&gt;&lt;/div&gt;" style="swimlane;fontStyle=0;childLayout=stackLayout;horizontal=1;startSize=26;fillColor=none;horizontalStack=0;resizeParent=1;resizeParentMax=0;resizeLast=0;collapsible=1;marginBottom=0;whiteSpace=wrap;html=1;" vertex="1" parent="1">
          <mxGeometry x="890" y="540" width="330" height="208" as="geometry" />
        </mxCell>
        <mxCell id="EsuTO7CVdzKNP3imB1wy-28" value="&lt;div style=&quot;color: rgb(204, 204, 204); background-color: rgb(31, 31, 31); font-family: Consolas, &amp;quot;Courier New&amp;quot;, monospace; font-size: 14px; line-height: 19px; white-space: pre;&quot;&gt;&lt;span style=&quot;color: #4ec9b0;&quot;&gt;gcov_unsigned_t&lt;/span&gt; &lt;span style=&quot;color: #9cdcfe;&quot;&gt;version&lt;/span&gt;;&lt;/div&gt;" style="text;strokeColor=none;fillColor=none;align=left;verticalAlign=top;spacingLeft=4;spacingRight=4;overflow=hidden;rotatable=0;points=[[0,0.5],[1,0.5]];portConstraint=eastwest;whiteSpace=wrap;html=1;" vertex="1" parent="EsuTO7CVdzKNP3imB1wy-27">
          <mxGeometry y="26" width="330" height="26" as="geometry" />
        </mxCell>
        <mxCell id="EsuTO7CVdzKNP3imB1wy-29" value="&lt;div style=&quot;color: rgb(204, 204, 204); background-color: rgb(31, 31, 31); font-family: Consolas, &amp;quot;Courier New&amp;quot;, monospace; font-size: 14px; line-height: 19px; white-space: pre;&quot;&gt;&lt;span style=&quot;color: #569cd6;&quot;&gt;struct&lt;/span&gt; &lt;span style=&quot;color: #4ec9b0;&quot;&gt;gcov_info&lt;/span&gt; &lt;span style=&quot;color: #d4d4d4;&quot;&gt;*&lt;/span&gt;&lt;span style=&quot;color: #9cdcfe;&quot;&gt;next&lt;/span&gt;;&lt;/div&gt;" style="text;strokeColor=none;fillColor=none;align=left;verticalAlign=top;spacingLeft=4;spacingRight=4;overflow=hidden;rotatable=0;points=[[0,0.5],[1,0.5]];portConstraint=eastwest;whiteSpace=wrap;html=1;" vertex="1" parent="EsuTO7CVdzKNP3imB1wy-27">
          <mxGeometry y="52" width="330" height="26" as="geometry" />
        </mxCell>
        <mxCell id="EsuTO7CVdzKNP3imB1wy-30" value="&lt;div style=&quot;color: rgb(204, 204, 204); background-color: rgb(31, 31, 31); font-family: Consolas, &amp;quot;Courier New&amp;quot;, monospace; font-size: 14px; line-height: 19px; white-space: pre;&quot;&gt;&lt;span style=&quot;color: #4ec9b0;&quot;&gt;gcov_unsigned_t&lt;/span&gt; &lt;span style=&quot;color: #9cdcfe;&quot;&gt;stamp&lt;/span&gt;;&lt;/div&gt;" style="text;strokeColor=none;fillColor=none;align=left;verticalAlign=top;spacingLeft=4;spacingRight=4;overflow=hidden;rotatable=0;points=[[0,0.5],[1,0.5]];portConstraint=eastwest;whiteSpace=wrap;html=1;" vertex="1" parent="EsuTO7CVdzKNP3imB1wy-27">
          <mxGeometry y="78" width="330" height="26" as="geometry" />
        </mxCell>
        <mxCell id="EsuTO7CVdzKNP3imB1wy-31" value="&lt;div style=&quot;color: rgb(204, 204, 204); background-color: rgb(31, 31, 31); font-family: Consolas, &amp;quot;Courier New&amp;quot;, monospace; font-size: 14px; line-height: 19px; white-space: pre;&quot;&gt;&lt;span style=&quot;color: #569cd6;&quot;&gt;const&lt;/span&gt; &lt;span style=&quot;color: #569cd6;&quot;&gt;char&lt;/span&gt; &lt;span style=&quot;color: #d4d4d4;&quot;&gt;*&lt;/span&gt;&lt;span style=&quot;color: #4fc1ff;&quot;&gt;filename&lt;/span&gt;;&lt;/div&gt;" style="text;strokeColor=none;fillColor=none;align=left;verticalAlign=top;spacingLeft=4;spacingRight=4;overflow=hidden;rotatable=0;points=[[0,0.5],[1,0.5]];portConstraint=eastwest;whiteSpace=wrap;html=1;" vertex="1" parent="EsuTO7CVdzKNP3imB1wy-27">
          <mxGeometry y="104" width="330" height="26" as="geometry" />
        </mxCell>
        <mxCell id="EsuTO7CVdzKNP3imB1wy-32" value="&lt;div style=&quot;color: rgb(204, 204, 204); background-color: rgb(31, 31, 31); font-family: Consolas, &amp;quot;Courier New&amp;quot;, monospace; font-size: 14px; line-height: 19px; white-space: pre;&quot;&gt;&lt;span style=&quot;color: #4ec9b0;&quot;&gt;gcov_merge_fn&lt;/span&gt; &lt;span style=&quot;color: #9cdcfe;&quot;&gt;merge&lt;/span&gt;[&lt;span style=&quot;color: #569cd6;&quot;&gt;GCOV_COUNTERS&lt;/span&gt;];&lt;/div&gt;" style="text;strokeColor=none;fillColor=none;align=left;verticalAlign=top;spacingLeft=4;spacingRight=4;overflow=hidden;rotatable=0;points=[[0,0.5],[1,0.5]];portConstraint=eastwest;whiteSpace=wrap;html=1;" vertex="1" parent="EsuTO7CVdzKNP3imB1wy-27">
          <mxGeometry y="130" width="330" height="26" as="geometry" />
        </mxCell>
        <mxCell id="EsuTO7CVdzKNP3imB1wy-33" value="&lt;div style=&quot;color: rgb(204, 204, 204); background-color: rgb(31, 31, 31); font-family: Consolas, &amp;quot;Courier New&amp;quot;, monospace; font-size: 14px; line-height: 19px; white-space: pre;&quot;&gt;&lt;span style=&quot;color: #569cd6;&quot;&gt;unsigned&lt;/span&gt; &lt;span style=&quot;color: #9cdcfe;&quot;&gt;n_functions&lt;/span&gt;;&lt;/div&gt;" style="text;strokeColor=none;fillColor=none;align=left;verticalAlign=top;spacingLeft=4;spacingRight=4;overflow=hidden;rotatable=0;points=[[0,0.5],[1,0.5]];portConstraint=eastwest;whiteSpace=wrap;html=1;" vertex="1" parent="EsuTO7CVdzKNP3imB1wy-27">
          <mxGeometry y="156" width="330" height="26" as="geometry" />
        </mxCell>
        <mxCell id="EsuTO7CVdzKNP3imB1wy-34" value="&lt;div style=&quot;color: rgb(204, 204, 204); background-color: rgb(31, 31, 31); font-family: Consolas, &amp;quot;Courier New&amp;quot;, monospace; font-size: 14px; line-height: 19px; white-space: pre;&quot;&gt;&lt;span style=&quot;color: #569cd6;&quot;&gt;struct&lt;/span&gt; &lt;span style=&quot;color: #4ec9b0;&quot;&gt;gcov_fn_info&lt;/span&gt; &lt;span style=&quot;color: #d4d4d4;&quot;&gt;**&lt;/span&gt;&lt;span style=&quot;color: #9cdcfe;&quot;&gt;functions&lt;/span&gt;;&lt;/div&gt;" style="text;strokeColor=none;fillColor=none;align=left;verticalAlign=top;spacingLeft=4;spacingRight=4;overflow=hidden;rotatable=0;points=[[0,0.5],[1,0.5]];portConstraint=eastwest;whiteSpace=wrap;html=1;" vertex="1" parent="EsuTO7CVdzKNP3imB1wy-27">
          <mxGeometry y="182" width="330" height="26" as="geometry" />
        </mxCell>
        <mxCell id="EsuTO7CVdzKNP3imB1wy-35" style="edgeStyle=orthogonalEdgeStyle;rounded=0;orthogonalLoop=1;jettySize=auto;html=1;entryX=0;entryY=0;entryDx=0;entryDy=0;startArrow=oval;startFill=1;" edge="1" parent="1" source="EsuTO7CVdzKNP3imB1wy-13" target="EsuTO7CVdzKNP3imB1wy-19">
          <mxGeometry relative="1" as="geometry" />
        </mxCell>
        <mxCell id="EsuTO7CVdzKNP3imB1wy-36" style="edgeStyle=orthogonalEdgeStyle;rounded=0;orthogonalLoop=1;jettySize=auto;html=1;entryX=0;entryY=0;entryDx=0;entryDy=0;startArrow=oval;startFill=1;" edge="1" parent="1" source="EsuTO7CVdzKNP3imB1wy-21" target="EsuTO7CVdzKNP3imB1wy-27">
          <mxGeometry relative="1" as="geometry" />
        </mxCell>
        <mxCell id="EsuTO7CVdzKNP3imB1wy-38" value="" style="shape=table;startSize=0;container=1;collapsible=0;childLayout=tableLayout;" vertex="1" parent="1">
          <mxGeometry x="140" y="330" width="60" height="120" as="geometry" />
        </mxCell>
        <mxCell id="EsuTO7CVdzKNP3imB1wy-39" value="" style="shape=tableRow;horizontal=0;startSize=0;swimlaneHead=0;swimlaneBody=0;strokeColor=inherit;top=0;left=0;bottom=0;right=0;collapsible=0;dropTarget=0;fillColor=none;points=[[0,0.5],[1,0.5]];portConstraint=eastwest;" vertex="1" parent="EsuTO7CVdzKNP3imB1wy-38">
          <mxGeometry width="60" height="40" as="geometry" />
        </mxCell>
        <mxCell id="EsuTO7CVdzKNP3imB1wy-40" value="fn1" style="shape=partialRectangle;html=1;whiteSpace=wrap;connectable=0;strokeColor=inherit;overflow=hidden;fillColor=none;top=0;left=0;bottom=0;right=0;pointerEvents=1;" vertex="1" parent="EsuTO7CVdzKNP3imB1wy-39">
          <mxGeometry width="60" height="40" as="geometry">
            <mxRectangle width="60" height="40" as="alternateBounds" />
          </mxGeometry>
        </mxCell>
        <mxCell id="EsuTO7CVdzKNP3imB1wy-41" value="" style="shape=tableRow;horizontal=0;startSize=0;swimlaneHead=0;swimlaneBody=0;strokeColor=inherit;top=0;left=0;bottom=0;right=0;collapsible=0;dropTarget=0;fillColor=none;points=[[0,0.5],[1,0.5]];portConstraint=eastwest;" vertex="1" parent="EsuTO7CVdzKNP3imB1wy-38">
          <mxGeometry y="40" width="60" height="40" as="geometry" />
        </mxCell>
        <mxCell id="EsuTO7CVdzKNP3imB1wy-42" value="fn2" style="shape=partialRectangle;html=1;whiteSpace=wrap;connectable=0;strokeColor=inherit;overflow=hidden;fillColor=none;top=0;left=0;bottom=0;right=0;pointerEvents=1;" vertex="1" parent="EsuTO7CVdzKNP3imB1wy-41">
          <mxGeometry width="60" height="40" as="geometry">
            <mxRectangle width="60" height="40" as="alternateBounds" />
          </mxGeometry>
        </mxCell>
        <mxCell id="EsuTO7CVdzKNP3imB1wy-43" value="" style="shape=tableRow;horizontal=0;startSize=0;swimlaneHead=0;swimlaneBody=0;strokeColor=inherit;top=0;left=0;bottom=0;right=0;collapsible=0;dropTarget=0;fillColor=none;points=[[0,0.5],[1,0.5]];portConstraint=eastwest;" vertex="1" parent="EsuTO7CVdzKNP3imB1wy-38">
          <mxGeometry y="80" width="60" height="40" as="geometry" />
        </mxCell>
        <mxCell id="EsuTO7CVdzKNP3imB1wy-44" value="fn3" style="shape=partialRectangle;html=1;whiteSpace=wrap;connectable=0;strokeColor=inherit;overflow=hidden;fillColor=none;top=0;left=0;bottom=0;right=0;pointerEvents=1;" vertex="1" parent="EsuTO7CVdzKNP3imB1wy-43">
          <mxGeometry width="60" height="40" as="geometry">
            <mxRectangle width="60" height="40" as="alternateBounds" />
          </mxGeometry>
        </mxCell>
        <mxCell id="EsuTO7CVdzKNP3imB1wy-37" style="edgeStyle=orthogonalEdgeStyle;rounded=0;orthogonalLoop=1;jettySize=auto;html=1;entryX=0;entryY=0.075;entryDx=0;entryDy=0;entryPerimeter=0;" edge="1" parent="1" source="EsuTO7CVdzKNP3imB1wy-18" target="EsuTO7CVdzKNP3imB1wy-39">
          <mxGeometry relative="1" as="geometry">
            <mxPoint x="50" y="340" as="targetPoint" />
          </mxGeometry>
        </mxCell>
        <mxCell id="EsuTO7CVdzKNP3imB1wy-45" style="edgeStyle=orthogonalEdgeStyle;rounded=0;orthogonalLoop=1;jettySize=auto;html=1;entryX=0;entryY=0;entryDx=0;entryDy=0;" edge="1" parent="1" source="EsuTO7CVdzKNP3imB1wy-39" target="EsuTO7CVdzKNP3imB1wy-5">
          <mxGeometry relative="1" as="geometry" />
        </mxCell>
        <mxCell id="EsuTO7CVdzKNP3imB1wy-46" style="edgeStyle=elbowEdgeStyle;rounded=0;orthogonalLoop=1;jettySize=auto;html=1;entryX=-0.017;entryY=0;entryDx=0;entryDy=0;entryPerimeter=0;" edge="1" parent="1" source="EsuTO7CVdzKNP3imB1wy-10" target="EsuTO7CVdzKNP3imB1wy-48">
          <mxGeometry relative="1" as="geometry" />
        </mxCell>
        <mxCell id="EsuTO7CVdzKNP3imB1wy-47" value="" style="shape=table;startSize=0;container=1;collapsible=0;childLayout=tableLayout;" vertex="1" parent="1">
          <mxGeometry x="690" y="160" width="60" height="120" as="geometry" />
        </mxCell>
        <mxCell id="EsuTO7CVdzKNP3imB1wy-48" value="" style="shape=tableRow;horizontal=0;startSize=0;swimlaneHead=0;swimlaneBody=0;strokeColor=inherit;top=0;left=0;bottom=0;right=0;collapsible=0;dropTarget=0;fillColor=none;points=[[0,0.5],[1,0.5]];portConstraint=eastwest;" vertex="1" parent="EsuTO7CVdzKNP3imB1wy-47">
          <mxGeometry width="60" height="40" as="geometry" />
        </mxCell>
        <mxCell id="EsuTO7CVdzKNP3imB1wy-49" value="" style="shape=partialRectangle;html=1;whiteSpace=wrap;connectable=0;strokeColor=inherit;overflow=hidden;fillColor=none;top=0;left=0;bottom=0;right=0;pointerEvents=1;" vertex="1" parent="EsuTO7CVdzKNP3imB1wy-48">
          <mxGeometry width="60" height="40" as="geometry">
            <mxRectangle width="60" height="40" as="alternateBounds" />
          </mxGeometry>
        </mxCell>
        <mxCell id="EsuTO7CVdzKNP3imB1wy-50" value="" style="shape=tableRow;horizontal=0;startSize=0;swimlaneHead=0;swimlaneBody=0;strokeColor=inherit;top=0;left=0;bottom=0;right=0;collapsible=0;dropTarget=0;fillColor=none;points=[[0,0.5],[1,0.5]];portConstraint=eastwest;" vertex="1" parent="EsuTO7CVdzKNP3imB1wy-47">
          <mxGeometry y="40" width="60" height="40" as="geometry" />
        </mxCell>
        <mxCell id="EsuTO7CVdzKNP3imB1wy-51" value="" style="shape=partialRectangle;html=1;whiteSpace=wrap;connectable=0;strokeColor=inherit;overflow=hidden;fillColor=none;top=0;left=0;bottom=0;right=0;pointerEvents=1;" vertex="1" parent="EsuTO7CVdzKNP3imB1wy-50">
          <mxGeometry width="60" height="40" as="geometry">
            <mxRectangle width="60" height="40" as="alternateBounds" />
          </mxGeometry>
        </mxCell>
        <mxCell id="EsuTO7CVdzKNP3imB1wy-52" value="" style="shape=tableRow;horizontal=0;startSize=0;swimlaneHead=0;swimlaneBody=0;strokeColor=inherit;top=0;left=0;bottom=0;right=0;collapsible=0;dropTarget=0;fillColor=none;points=[[0,0.5],[1,0.5]];portConstraint=eastwest;" vertex="1" parent="EsuTO7CVdzKNP3imB1wy-47">
          <mxGeometry y="80" width="60" height="40" as="geometry" />
        </mxCell>
        <mxCell id="EsuTO7CVdzKNP3imB1wy-53" value="" style="shape=partialRectangle;html=1;whiteSpace=wrap;connectable=0;strokeColor=inherit;overflow=hidden;fillColor=none;top=0;left=0;bottom=0;right=0;pointerEvents=1;" vertex="1" parent="EsuTO7CVdzKNP3imB1wy-52">
          <mxGeometry width="60" height="40" as="geometry">
            <mxRectangle width="60" height="40" as="alternateBounds" />
          </mxGeometry>
        </mxCell>
        <mxCell id="EsuTO7CVdzKNP3imB1wy-54" style="edgeStyle=orthogonalEdgeStyle;rounded=0;orthogonalLoop=1;jettySize=auto;html=1;entryX=0;entryY=0;entryDx=0;entryDy=0;" edge="1" parent="1" source="EsuTO7CVdzKNP3imB1wy-48" target="EsuTO7CVdzKNP3imB1wy-1">
          <mxGeometry relative="1" as="geometry" />
        </mxCell>
        <mxCell id="EsuTO7CVdzKNP3imB1wy-55" value="" style="shape=table;startSize=0;container=1;collapsible=0;childLayout=tableLayout;" vertex="1" parent="1">
          <mxGeometry x="1130" y="210" width="60" height="160" as="geometry" />
        </mxCell>
        <mxCell id="EsuTO7CVdzKNP3imB1wy-56" value="" style="shape=tableRow;horizontal=0;startSize=0;swimlaneHead=0;swimlaneBody=0;strokeColor=inherit;top=0;left=0;bottom=0;right=0;collapsible=0;dropTarget=0;fillColor=none;points=[[0,0.5],[1,0.5]];portConstraint=eastwest;" vertex="1" parent="EsuTO7CVdzKNP3imB1wy-55">
          <mxGeometry width="60" height="40" as="geometry" />
        </mxCell>
        <mxCell id="EsuTO7CVdzKNP3imB1wy-57" value="" style="shape=partialRectangle;html=1;whiteSpace=wrap;connectable=0;strokeColor=inherit;overflow=hidden;fillColor=none;top=0;left=0;bottom=0;right=0;pointerEvents=1;" vertex="1" parent="EsuTO7CVdzKNP3imB1wy-56">
          <mxGeometry width="60" height="40" as="geometry">
            <mxRectangle width="60" height="40" as="alternateBounds" />
          </mxGeometry>
        </mxCell>
        <mxCell id="EsuTO7CVdzKNP3imB1wy-58" value="" style="shape=tableRow;horizontal=0;startSize=0;swimlaneHead=0;swimlaneBody=0;strokeColor=inherit;top=0;left=0;bottom=0;right=0;collapsible=0;dropTarget=0;fillColor=none;points=[[0,0.5],[1,0.5]];portConstraint=eastwest;" vertex="1" parent="EsuTO7CVdzKNP3imB1wy-55">
          <mxGeometry y="40" width="60" height="40" as="geometry" />
        </mxCell>
        <mxCell id="EsuTO7CVdzKNP3imB1wy-59" value="" style="shape=partialRectangle;html=1;whiteSpace=wrap;connectable=0;strokeColor=inherit;overflow=hidden;fillColor=none;top=0;left=0;bottom=0;right=0;pointerEvents=1;" vertex="1" parent="EsuTO7CVdzKNP3imB1wy-58">
          <mxGeometry width="60" height="40" as="geometry">
            <mxRectangle width="60" height="40" as="alternateBounds" />
          </mxGeometry>
        </mxCell>
        <mxCell id="EsuTO7CVdzKNP3imB1wy-60" value="" style="shape=tableRow;horizontal=0;startSize=0;swimlaneHead=0;swimlaneBody=0;strokeColor=inherit;top=0;left=0;bottom=0;right=0;collapsible=0;dropTarget=0;fillColor=none;points=[[0,0.5],[1,0.5]];portConstraint=eastwest;" vertex="1" parent="EsuTO7CVdzKNP3imB1wy-55">
          <mxGeometry y="80" width="60" height="40" as="geometry" />
        </mxCell>
        <mxCell id="EsuTO7CVdzKNP3imB1wy-61" value="" style="shape=partialRectangle;html=1;whiteSpace=wrap;connectable=0;strokeColor=inherit;overflow=hidden;fillColor=none;top=0;left=0;bottom=0;right=0;pointerEvents=1;" vertex="1" parent="EsuTO7CVdzKNP3imB1wy-60">
          <mxGeometry width="60" height="40" as="geometry">
            <mxRectangle width="60" height="40" as="alternateBounds" />
          </mxGeometry>
        </mxCell>
        <mxCell id="EsuTO7CVdzKNP3imB1wy-62" value="" style="shape=tableRow;horizontal=0;startSize=0;swimlaneHead=0;swimlaneBody=0;strokeColor=inherit;top=0;left=0;bottom=0;right=0;collapsible=0;dropTarget=0;fillColor=none;points=[[0,0.5],[1,0.5]];portConstraint=eastwest;" vertex="1" parent="EsuTO7CVdzKNP3imB1wy-55">
          <mxGeometry y="120" width="60" height="40" as="geometry" />
        </mxCell>
        <mxCell id="EsuTO7CVdzKNP3imB1wy-63" value="" style="shape=partialRectangle;html=1;whiteSpace=wrap;connectable=0;strokeColor=inherit;overflow=hidden;fillColor=none;top=0;left=0;bottom=0;right=0;pointerEvents=1;" vertex="1" parent="EsuTO7CVdzKNP3imB1wy-62">
          <mxGeometry width="60" height="40" as="geometry">
            <mxRectangle width="60" height="40" as="alternateBounds" />
          </mxGeometry>
        </mxCell>
        <mxCell id="EsuTO7CVdzKNP3imB1wy-64" style="edgeStyle=orthogonalEdgeStyle;rounded=0;orthogonalLoop=1;jettySize=auto;html=1;entryX=-0.017;entryY=0.15;entryDx=0;entryDy=0;entryPerimeter=0;" edge="1" parent="1" source="EsuTO7CVdzKNP3imB1wy-3" target="EsuTO7CVdzKNP3imB1wy-56">
          <mxGeometry relative="1" as="geometry" />
        </mxCell>
        <mxCell id="EsuTO7CVdzKNP3imB1wy-65" value="data magic" style="rounded=1;whiteSpace=wrap;html=1;" vertex="1" parent="1">
          <mxGeometry x="50" y="790" width="110" height="60" as="geometry" />
        </mxCell>
        <mxCell id="EsuTO7CVdzKNP3imB1wy-66" value="buffer" style="text;html=1;align=center;verticalAlign=middle;whiteSpace=wrap;rounded=0;" vertex="1" parent="1">
          <mxGeometry x="50" y="760" width="60" height="30" as="geometry" />
        </mxCell>
        <mxCell id="EsuTO7CVdzKNP3imB1wy-69" value="version" style="rounded=1;whiteSpace=wrap;html=1;" vertex="1" parent="1">
          <mxGeometry x="160" y="790" width="60" height="60" as="geometry" />
        </mxCell>
        <mxCell id="EsuTO7CVdzKNP3imB1wy-71" value="stamp" style="rounded=1;whiteSpace=wrap;html=1;" vertex="1" parent="1">
          <mxGeometry x="220" y="790" width="60" height="60" as="geometry" />
        </mxCell>
        <mxCell id="EsuTO7CVdzKNP3imB1wy-72" value="tag function" style="rounded=1;whiteSpace=wrap;html=1;fillColor=#ffe6cc;strokeColor=#d79b00;" vertex="1" parent="1">
          <mxGeometry x="280" y="790" width="100" height="60" as="geometry" />
        </mxCell>
        <mxCell id="EsuTO7CVdzKNP3imB1wy-73" value="function length" style="rounded=1;whiteSpace=wrap;html=1;fillColor=#ffe6cc;strokeColor=#d79b00;" vertex="1" parent="1">
          <mxGeometry x="380" y="790" width="60" height="60" as="geometry" />
        </mxCell>
        <mxCell id="EsuTO7CVdzKNP3imB1wy-74" value="fi_ptr-&amp;gt;ident" style="rounded=1;whiteSpace=wrap;html=1;fillColor=#ffe6cc;strokeColor=#d79b00;" vertex="1" parent="1">
          <mxGeometry x="440" y="790" width="100" height="60" as="geometry" />
        </mxCell>
        <mxCell id="EsuTO7CVdzKNP3imB1wy-75" value="fi_ptr-&amp;gt;lineno_checksum" style="rounded=1;whiteSpace=wrap;html=1;fillColor=#ffe6cc;strokeColor=#d79b00;" vertex="1" parent="1">
          <mxGeometry x="540" y="790" width="110" height="60" as="geometry" />
        </mxCell>
        <mxCell id="EsuTO7CVdzKNP3imB1wy-76" value="fi_ptr-&amp;gt;cfg_checksum" style="rounded=1;whiteSpace=wrap;html=1;fillColor=#ffe6cc;strokeColor=#d79b00;" vertex="1" parent="1">
          <mxGeometry x="650" y="790" width="120" height="60" as="geometry" />
        </mxCell>
        <mxCell id="EsuTO7CVdzKNP3imB1wy-77" value="tag counter" style="rounded=1;whiteSpace=wrap;html=1;fillColor=#dae8fc;strokeColor=#6c8ebf;" vertex="1" parent="1">
          <mxGeometry x="770" y="790" width="100" height="60" as="geometry" />
        </mxCell>
        <mxCell id="EsuTO7CVdzKNP3imB1wy-78" value="ci_ptr-&amp;gt;num" style="rounded=1;whiteSpace=wrap;html=1;fillColor=#dae8fc;strokeColor=#6c8ebf;" vertex="1" parent="1">
          <mxGeometry x="870" y="790" width="90" height="60" as="geometry" />
        </mxCell>
        <mxCell id="EsuTO7CVdzKNP3imB1wy-79" value="value" style="rounded=1;whiteSpace=wrap;html=1;fillColor=#fff2cc;strokeColor=#d6b656;" vertex="1" parent="1">
          <mxGeometry x="960" y="790" width="70" height="60" as="geometry" />
        </mxCell>
        <mxCell id="EsuTO7CVdzKNP3imB1wy-80" value="value" style="rounded=1;whiteSpace=wrap;html=1;fillColor=#fff2cc;strokeColor=#d6b656;" vertex="1" parent="1">
          <mxGeometry x="1030" y="790" width="70" height="60" as="geometry" />
        </mxCell>
        <mxCell id="EsuTO7CVdzKNP3imB1wy-81" value="" style="endArrow=classic;html=1;rounded=0;" edge="1" parent="1">
          <mxGeometry width="50" height="50" relative="1" as="geometry">
            <mxPoint x="1030" y="780" as="sourcePoint" />
            <mxPoint x="1100" y="340" as="targetPoint" />
          </mxGeometry>
        </mxCell>
        <mxCell id="EsuTO7CVdzKNP3imB1wy-82" value="" style="endArrow=classic;html=1;rounded=0;" edge="1" parent="1">
          <mxGeometry width="50" height="50" relative="1" as="geometry">
            <mxPoint x="850" y="790" as="sourcePoint" />
            <mxPoint x="900" y="320" as="targetPoint" />
          </mxGeometry>
        </mxCell>
        <mxCell id="EsuTO7CVdzKNP3imB1wy-83" value="" style="endArrow=classic;html=1;rounded=0;" edge="1" parent="1">
          <mxGeometry width="50" height="50" relative="1" as="geometry">
            <mxPoint x="570" y="770" as="sourcePoint" />
            <mxPoint x="410" y="480" as="targetPoint" />
          </mxGeometry>
        </mxCell>
        <mxCell id="EsuTO7CVdzKNP3imB1wy-84" value="" style="endArrow=classic;html=1;rounded=0;" edge="1" parent="1">
          <mxGeometry width="50" height="50" relative="1" as="geometry">
            <mxPoint x="150" y="810" as="sourcePoint" />
            <mxPoint x="200" y="760" as="targetPoint" />
          </mxGeometry>
        </mxCell>
        <mxCell id="EsuTO7CVdzKNP3imB1wy-85" value="tag counter" style="rounded=1;whiteSpace=wrap;html=1;fillColor=#dae8fc;strokeColor=#6c8ebf;" vertex="1" parent="1">
          <mxGeometry x="1100" y="790" width="100" height="60" as="geometry" />
        </mxCell>
        <mxCell id="EsuTO7CVdzKNP3imB1wy-86" value="ci_ptr-&amp;gt;num" style="rounded=1;whiteSpace=wrap;html=1;fillColor=#dae8fc;strokeColor=#6c8ebf;" vertex="1" parent="1">
          <mxGeometry x="1200" y="790" width="90" height="60" as="geometry" />
        </mxCell>
        <mxCell id="EsuTO7CVdzKNP3imB1wy-87" value="value" style="rounded=1;whiteSpace=wrap;html=1;fillColor=#fff2cc;strokeColor=#d6b656;" vertex="1" parent="1">
          <mxGeometry x="1290" y="790" width="70" height="60" as="geometry" />
        </mxCell>
        <mxCell id="EsuTO7CVdzKNP3imB1wy-88" value="value" style="rounded=1;whiteSpace=wrap;html=1;fillColor=#fff2cc;strokeColor=#d6b656;" vertex="1" parent="1">
          <mxGeometry x="1360" y="790" width="70" height="60" as="geometry" />
        </mxCell>
        <mxCell id="EsuTO7CVdzKNP3imB1wy-89" value="tag counter" style="rounded=1;whiteSpace=wrap;html=1;fillColor=#dae8fc;strokeColor=#6c8ebf;" vertex="1" parent="1">
          <mxGeometry x="1430" y="790" width="100" height="60" as="geometry" />
        </mxCell>
        <mxCell id="EsuTO7CVdzKNP3imB1wy-90" value="ci_ptr-&amp;gt;num" style="rounded=1;whiteSpace=wrap;html=1;fillColor=#dae8fc;strokeColor=#6c8ebf;" vertex="1" parent="1">
          <mxGeometry x="1530" y="790" width="90" height="60" as="geometry" />
        </mxCell>
        <mxCell id="EsuTO7CVdzKNP3imB1wy-91" value="value" style="rounded=1;whiteSpace=wrap;html=1;fillColor=#fff2cc;strokeColor=#d6b656;" vertex="1" parent="1">
          <mxGeometry x="1620" y="790" width="70" height="60" as="geometry" />
        </mxCell>
        <mxCell id="EsuTO7CVdzKNP3imB1wy-92" value="value" style="rounded=1;whiteSpace=wrap;html=1;fillColor=#fff2cc;strokeColor=#d6b656;" vertex="1" parent="1">
          <mxGeometry x="1690" y="790" width="70" height="60" as="geometry" />
        </mxCell>
        <mxCell id="EsuTO7CVdzKNP3imB1wy-93" value="tag function" style="rounded=1;whiteSpace=wrap;html=1;fillColor=#ffe6cc;strokeColor=#d79b00;" vertex="1" parent="1">
          <mxGeometry x="50" y="900" width="100" height="60" as="geometry" />
        </mxCell>
        <mxCell id="EsuTO7CVdzKNP3imB1wy-94" value="function length" style="rounded=1;whiteSpace=wrap;html=1;fillColor=#ffe6cc;strokeColor=#d79b00;" vertex="1" parent="1">
          <mxGeometry x="150" y="900" width="60" height="60" as="geometry" />
        </mxCell>
        <mxCell id="EsuTO7CVdzKNP3imB1wy-95" value="fi_ptr-&amp;gt;ident" style="rounded=1;whiteSpace=wrap;html=1;fillColor=#ffe6cc;strokeColor=#d79b00;" vertex="1" parent="1">
          <mxGeometry x="210" y="900" width="100" height="60" as="geometry" />
        </mxCell>
        <mxCell id="EsuTO7CVdzKNP3imB1wy-96" value="fi_ptr-&amp;gt;lineno_checksum" style="rounded=1;whiteSpace=wrap;html=1;fillColor=#ffe6cc;strokeColor=#d79b00;" vertex="1" parent="1">
          <mxGeometry x="310" y="900" width="110" height="60" as="geometry" />
        </mxCell>
        <mxCell id="EsuTO7CVdzKNP3imB1wy-97" value="fi_ptr-&amp;gt;cfg_checksum" style="rounded=1;whiteSpace=wrap;html=1;fillColor=#ffe6cc;strokeColor=#d79b00;" vertex="1" parent="1">
          <mxGeometry x="420" y="900" width="120" height="60" as="geometry" />
        </mxCell>
        <mxCell id="EsuTO7CVdzKNP3imB1wy-98" value="tag counter" style="rounded=1;whiteSpace=wrap;html=1;fillColor=#dae8fc;strokeColor=#6c8ebf;" vertex="1" parent="1">
          <mxGeometry x="540" y="900" width="100" height="60" as="geometry" />
        </mxCell>
        <mxCell id="EsuTO7CVdzKNP3imB1wy-99" value="ci_ptr-&amp;gt;num" style="rounded=1;whiteSpace=wrap;html=1;fillColor=#dae8fc;strokeColor=#6c8ebf;" vertex="1" parent="1">
          <mxGeometry x="640" y="900" width="90" height="60" as="geometry" />
        </mxCell>
        <mxCell id="EsuTO7CVdzKNP3imB1wy-100" value="value" style="rounded=1;whiteSpace=wrap;html=1;fillColor=#fff2cc;strokeColor=#d6b656;" vertex="1" parent="1">
          <mxGeometry x="730" y="900" width="70" height="60" as="geometry" />
        </mxCell>
        <mxCell id="EsuTO7CVdzKNP3imB1wy-101" value="value" style="rounded=1;whiteSpace=wrap;html=1;fillColor=#fff2cc;strokeColor=#d6b656;" vertex="1" parent="1">
          <mxGeometry x="800" y="900" width="70" height="60" as="geometry" />
        </mxCell>
        <mxCell id="EsuTO7CVdzKNP3imB1wy-102" value="tag counter" style="rounded=1;whiteSpace=wrap;html=1;fillColor=#dae8fc;strokeColor=#6c8ebf;" vertex="1" parent="1">
          <mxGeometry x="870" y="900" width="100" height="60" as="geometry" />
        </mxCell>
        <mxCell id="EsuTO7CVdzKNP3imB1wy-103" value="ci_ptr-&amp;gt;num" style="rounded=1;whiteSpace=wrap;html=1;fillColor=#dae8fc;strokeColor=#6c8ebf;" vertex="1" parent="1">
          <mxGeometry x="970" y="900" width="90" height="60" as="geometry" />
        </mxCell>
        <mxCell id="EsuTO7CVdzKNP3imB1wy-104" value="value" style="rounded=1;whiteSpace=wrap;html=1;fillColor=#fff2cc;strokeColor=#d6b656;" vertex="1" parent="1">
          <mxGeometry x="1060" y="900" width="70" height="60" as="geometry" />
        </mxCell>
        <mxCell id="EsuTO7CVdzKNP3imB1wy-105" value="value" style="rounded=1;whiteSpace=wrap;html=1;fillColor=#fff2cc;strokeColor=#d6b656;" vertex="1" parent="1">
          <mxGeometry x="1130" y="900" width="70" height="60" as="geometry" />
        </mxCell>
        <mxCell id="EsuTO7CVdzKNP3imB1wy-106" value="tag counter" style="rounded=1;whiteSpace=wrap;html=1;fillColor=#dae8fc;strokeColor=#6c8ebf;" vertex="1" parent="1">
          <mxGeometry x="1200" y="900" width="100" height="60" as="geometry" />
        </mxCell>
        <mxCell id="EsuTO7CVdzKNP3imB1wy-107" value="ci_ptr-&amp;gt;num" style="rounded=1;whiteSpace=wrap;html=1;fillColor=#dae8fc;strokeColor=#6c8ebf;" vertex="1" parent="1">
          <mxGeometry x="1300" y="900" width="90" height="60" as="geometry" />
        </mxCell>
        <mxCell id="EsuTO7CVdzKNP3imB1wy-108" value="value" style="rounded=1;whiteSpace=wrap;html=1;fillColor=#fff2cc;strokeColor=#d6b656;" vertex="1" parent="1">
          <mxGeometry x="1390" y="900" width="70" height="60" as="geometry" />
        </mxCell>
        <mxCell id="EsuTO7CVdzKNP3imB1wy-109" value="value" style="rounded=1;whiteSpace=wrap;html=1;fillColor=#fff2cc;strokeColor=#d6b656;" vertex="1" parent="1">
          <mxGeometry x="1460" y="900" width="70" height="60" as="geometry" />
        </mxCell>
        <mxCell id="EsuTO7CVdzKNP3imB1wy-110" value="tag function" style="rounded=1;whiteSpace=wrap;html=1;fillColor=#ffe6cc;strokeColor=#d79b00;" vertex="1" parent="1">
          <mxGeometry x="50" y="1010" width="100" height="60" as="geometry" />
        </mxCell>
        <mxCell id="EsuTO7CVdzKNP3imB1wy-111" value="function length" style="rounded=1;whiteSpace=wrap;html=1;fillColor=#ffe6cc;strokeColor=#d79b00;" vertex="1" parent="1">
          <mxGeometry x="150" y="1010" width="60" height="60" as="geometry" />
        </mxCell>
        <mxCell id="EsuTO7CVdzKNP3imB1wy-112" value="fi_ptr-&amp;gt;ident" style="rounded=1;whiteSpace=wrap;html=1;fillColor=#ffe6cc;strokeColor=#d79b00;" vertex="1" parent="1">
          <mxGeometry x="210" y="1010" width="100" height="60" as="geometry" />
        </mxCell>
        <mxCell id="EsuTO7CVdzKNP3imB1wy-113" value="fi_ptr-&amp;gt;lineno_checksum" style="rounded=1;whiteSpace=wrap;html=1;fillColor=#ffe6cc;strokeColor=#d79b00;" vertex="1" parent="1">
          <mxGeometry x="310" y="1010" width="110" height="60" as="geometry" />
        </mxCell>
        <mxCell id="EsuTO7CVdzKNP3imB1wy-114" value="fi_ptr-&amp;gt;cfg_checksum" style="rounded=1;whiteSpace=wrap;html=1;fillColor=#ffe6cc;strokeColor=#d79b00;" vertex="1" parent="1">
          <mxGeometry x="420" y="1010" width="120" height="60" as="geometry" />
        </mxCell>
        <mxCell id="EsuTO7CVdzKNP3imB1wy-115" value="tag counter" style="rounded=1;whiteSpace=wrap;html=1;fillColor=#dae8fc;strokeColor=#6c8ebf;" vertex="1" parent="1">
          <mxGeometry x="540" y="1010" width="100" height="60" as="geometry" />
        </mxCell>
        <mxCell id="EsuTO7CVdzKNP3imB1wy-116" value="ci_ptr-&amp;gt;num" style="rounded=1;whiteSpace=wrap;html=1;fillColor=#dae8fc;strokeColor=#6c8ebf;" vertex="1" parent="1">
          <mxGeometry x="640" y="1010" width="90" height="60" as="geometry" />
        </mxCell>
        <mxCell id="EsuTO7CVdzKNP3imB1wy-117" value="value" style="rounded=1;whiteSpace=wrap;html=1;fillColor=#fff2cc;strokeColor=#d6b656;" vertex="1" parent="1">
          <mxGeometry x="730" y="1010" width="70" height="60" as="geometry" />
        </mxCell>
        <mxCell id="EsuTO7CVdzKNP3imB1wy-118" value="value" style="rounded=1;whiteSpace=wrap;html=1;fillColor=#fff2cc;strokeColor=#d6b656;" vertex="1" parent="1">
          <mxGeometry x="800" y="1010" width="70" height="60" as="geometry" />
        </mxCell>
        <mxCell id="EsuTO7CVdzKNP3imB1wy-119" value="tag counter" style="rounded=1;whiteSpace=wrap;html=1;fillColor=#dae8fc;strokeColor=#6c8ebf;" vertex="1" parent="1">
          <mxGeometry x="870" y="1010" width="100" height="60" as="geometry" />
        </mxCell>
        <mxCell id="EsuTO7CVdzKNP3imB1wy-120" value="ci_ptr-&amp;gt;num" style="rounded=1;whiteSpace=wrap;html=1;fillColor=#dae8fc;strokeColor=#6c8ebf;" vertex="1" parent="1">
          <mxGeometry x="970" y="1010" width="90" height="60" as="geometry" />
        </mxCell>
        <mxCell id="EsuTO7CVdzKNP3imB1wy-121" value="value" style="rounded=1;whiteSpace=wrap;html=1;fillColor=#fff2cc;strokeColor=#d6b656;" vertex="1" parent="1">
          <mxGeometry x="1060" y="1010" width="70" height="60" as="geometry" />
        </mxCell>
        <mxCell id="EsuTO7CVdzKNP3imB1wy-122" value="value" style="rounded=1;whiteSpace=wrap;html=1;fillColor=#fff2cc;strokeColor=#d6b656;" vertex="1" parent="1">
          <mxGeometry x="1130" y="1010" width="70" height="60" as="geometry" />
        </mxCell>
        <mxCell id="EsuTO7CVdzKNP3imB1wy-123" value="tag counter" style="rounded=1;whiteSpace=wrap;html=1;fillColor=#dae8fc;strokeColor=#6c8ebf;" vertex="1" parent="1">
          <mxGeometry x="1200" y="1010" width="100" height="60" as="geometry" />
        </mxCell>
        <mxCell id="EsuTO7CVdzKNP3imB1wy-124" value="ci_ptr-&amp;gt;num" style="rounded=1;whiteSpace=wrap;html=1;fillColor=#dae8fc;strokeColor=#6c8ebf;" vertex="1" parent="1">
          <mxGeometry x="1300" y="1010" width="90" height="60" as="geometry" />
        </mxCell>
        <mxCell id="EsuTO7CVdzKNP3imB1wy-125" value="value" style="rounded=1;whiteSpace=wrap;html=1;fillColor=#fff2cc;strokeColor=#d6b656;" vertex="1" parent="1">
          <mxGeometry x="1390" y="1010" width="70" height="60" as="geometry" />
        </mxCell>
        <mxCell id="EsuTO7CVdzKNP3imB1wy-126" value="value" style="rounded=1;whiteSpace=wrap;html=1;fillColor=#fff2cc;strokeColor=#d6b656;" vertex="1" parent="1">
          <mxGeometry x="1460" y="1010" width="70" height="60" as="geometry" />
        </mxCell>
        <mxCell id="EsuTO7CVdzKNP3imB1wy-127" value="&lt;div style=&quot;color: rgb(204, 204, 204); background-color: rgb(31, 31, 31); font-family: Consolas, &amp;quot;Courier New&amp;quot;, monospace; font-size: 14px; line-height: 19px; white-space: pre;&quot;&gt;&lt;span style=&quot;color: #4ec9b0;&quot;&gt;GcovInfo&lt;/span&gt;&lt;/div&gt;" style="swimlane;fontStyle=0;childLayout=stackLayout;horizontal=1;startSize=26;fillColor=none;horizontalStack=0;resizeParent=1;resizeParentMax=0;resizeLast=0;collapsible=1;marginBottom=0;whiteSpace=wrap;html=1;" vertex="1" parent="1">
          <mxGeometry x="120" y="1165" width="240" height="104" as="geometry" />
        </mxCell>
        <mxCell id="EsuTO7CVdzKNP3imB1wy-144" style="edgeStyle=orthogonalEdgeStyle;rounded=0;orthogonalLoop=1;jettySize=auto;html=1;" edge="1" parent="EsuTO7CVdzKNP3imB1wy-127" source="EsuTO7CVdzKNP3imB1wy-128">
          <mxGeometry relative="1" as="geometry">
            <mxPoint x="250" y="-405" as="targetPoint" />
          </mxGeometry>
        </mxCell>
        <mxCell id="EsuTO7CVdzKNP3imB1wy-128" value="&lt;div style=&quot;color: rgb(204, 204, 204); background-color: rgb(31, 31, 31); font-family: Consolas, &amp;quot;Courier New&amp;quot;, monospace; font-size: 14px; line-height: 19px; white-space: pre;&quot;&gt;&lt;span style=&quot;color: #569cd6;&quot;&gt;struct&lt;/span&gt; &lt;span style=&quot;color: #4ec9b0;&quot;&gt;gcov_info&lt;/span&gt; &lt;span style=&quot;color: #d4d4d4;&quot;&gt;*&lt;/span&gt;&lt;span style=&quot;color: #9cdcfe;&quot;&gt;info&lt;/span&gt;;&lt;/div&gt;" style="text;strokeColor=none;fillColor=none;align=left;verticalAlign=top;spacingLeft=4;spacingRight=4;overflow=hidden;rotatable=0;points=[[0,0.5],[1,0.5]];portConstraint=eastwest;whiteSpace=wrap;html=1;" vertex="1" parent="EsuTO7CVdzKNP3imB1wy-127">
          <mxGeometry y="26" width="240" height="26" as="geometry" />
        </mxCell>
        <mxCell id="EsuTO7CVdzKNP3imB1wy-129" value="&lt;div style=&quot;color: rgb(204, 204, 204); background-color: rgb(31, 31, 31); font-family: Consolas, &amp;quot;Courier New&amp;quot;, monospace; font-size: 14px; line-height: 19px; white-space: pre;&quot;&gt;&lt;span style=&quot;color: #569cd6;&quot;&gt;struct&lt;/span&gt; &lt;span style=&quot;color: #4ec9b0;&quot;&gt;tagGcovInfo&lt;/span&gt; &lt;span style=&quot;color: #d4d4d4;&quot;&gt;*&lt;/span&gt;&lt;span style=&quot;color: #9cdcfe;&quot;&gt;next&lt;/span&gt;;&lt;/div&gt;" style="text;strokeColor=none;fillColor=none;align=left;verticalAlign=top;spacingLeft=4;spacingRight=4;overflow=hidden;rotatable=0;points=[[0,0.5],[1,0.5]];portConstraint=eastwest;whiteSpace=wrap;html=1;" vertex="1" parent="EsuTO7CVdzKNP3imB1wy-127">
          <mxGeometry y="52" width="240" height="26" as="geometry" />
        </mxCell>
        <mxCell id="EsuTO7CVdzKNP3imB1wy-130" value="+ field: type" style="text;strokeColor=none;fillColor=none;align=left;verticalAlign=top;spacingLeft=4;spacingRight=4;overflow=hidden;rotatable=0;points=[[0,0.5],[1,0.5]];portConstraint=eastwest;whiteSpace=wrap;html=1;" vertex="1" parent="EsuTO7CVdzKNP3imB1wy-127">
          <mxGeometry y="78" width="240" height="26" as="geometry" />
        </mxCell>
        <mxCell id="EsuTO7CVdzKNP3imB1wy-131" value="" style="shape=table;startSize=0;container=1;collapsible=0;childLayout=tableLayout;" vertex="1" parent="1">
          <mxGeometry x="30" y="1300" width="60" height="160" as="geometry" />
        </mxCell>
        <mxCell id="EsuTO7CVdzKNP3imB1wy-132" value="" style="shape=tableRow;horizontal=0;startSize=0;swimlaneHead=0;swimlaneBody=0;strokeColor=inherit;top=0;left=0;bottom=0;right=0;collapsible=0;dropTarget=0;fillColor=none;points=[[0,0.5],[1,0.5]];portConstraint=eastwest;" vertex="1" parent="EsuTO7CVdzKNP3imB1wy-131">
          <mxGeometry width="60" height="40" as="geometry" />
        </mxCell>
        <mxCell id="EsuTO7CVdzKNP3imB1wy-133" value="" style="shape=partialRectangle;html=1;whiteSpace=wrap;connectable=0;strokeColor=inherit;overflow=hidden;fillColor=none;top=0;left=0;bottom=0;right=0;pointerEvents=1;" vertex="1" parent="EsuTO7CVdzKNP3imB1wy-132">
          <mxGeometry width="60" height="40" as="geometry">
            <mxRectangle width="60" height="40" as="alternateBounds" />
          </mxGeometry>
        </mxCell>
        <mxCell id="EsuTO7CVdzKNP3imB1wy-134" value="" style="shape=tableRow;horizontal=0;startSize=0;swimlaneHead=0;swimlaneBody=0;strokeColor=inherit;top=0;left=0;bottom=0;right=0;collapsible=0;dropTarget=0;fillColor=none;points=[[0,0.5],[1,0.5]];portConstraint=eastwest;" vertex="1" parent="EsuTO7CVdzKNP3imB1wy-131">
          <mxGeometry y="40" width="60" height="40" as="geometry" />
        </mxCell>
        <mxCell id="EsuTO7CVdzKNP3imB1wy-135" value="" style="shape=partialRectangle;html=1;whiteSpace=wrap;connectable=0;strokeColor=inherit;overflow=hidden;fillColor=none;top=0;left=0;bottom=0;right=0;pointerEvents=1;" vertex="1" parent="EsuTO7CVdzKNP3imB1wy-134">
          <mxGeometry width="60" height="40" as="geometry">
            <mxRectangle width="60" height="40" as="alternateBounds" />
          </mxGeometry>
        </mxCell>
        <mxCell id="EsuTO7CVdzKNP3imB1wy-136" value="" style="shape=tableRow;horizontal=0;startSize=0;swimlaneHead=0;swimlaneBody=0;strokeColor=inherit;top=0;left=0;bottom=0;right=0;collapsible=0;dropTarget=0;fillColor=none;points=[[0,0.5],[1,0.5]];portConstraint=eastwest;" vertex="1" parent="EsuTO7CVdzKNP3imB1wy-131">
          <mxGeometry y="80" width="60" height="40" as="geometry" />
        </mxCell>
        <mxCell id="EsuTO7CVdzKNP3imB1wy-137" value="" style="shape=partialRectangle;html=1;whiteSpace=wrap;connectable=0;strokeColor=inherit;overflow=hidden;fillColor=none;top=0;left=0;bottom=0;right=0;pointerEvents=1;" vertex="1" parent="EsuTO7CVdzKNP3imB1wy-136">
          <mxGeometry width="60" height="40" as="geometry">
            <mxRectangle width="60" height="40" as="alternateBounds" />
          </mxGeometry>
        </mxCell>
        <mxCell id="EsuTO7CVdzKNP3imB1wy-138" value="" style="shape=tableRow;horizontal=0;startSize=0;swimlaneHead=0;swimlaneBody=0;strokeColor=inherit;top=0;left=0;bottom=0;right=0;collapsible=0;dropTarget=0;fillColor=none;points=[[0,0.5],[1,0.5]];portConstraint=eastwest;" vertex="1" parent="EsuTO7CVdzKNP3imB1wy-131">
          <mxGeometry y="120" width="60" height="40" as="geometry" />
        </mxCell>
        <mxCell id="EsuTO7CVdzKNP3imB1wy-139" value="" style="shape=partialRectangle;html=1;whiteSpace=wrap;connectable=0;strokeColor=inherit;overflow=hidden;fillColor=none;top=0;left=0;bottom=0;right=0;pointerEvents=1;" vertex="1" parent="EsuTO7CVdzKNP3imB1wy-138">
          <mxGeometry width="60" height="40" as="geometry">
            <mxRectangle width="60" height="40" as="alternateBounds" />
          </mxGeometry>
        </mxCell>
        <mxCell id="EsuTO7CVdzKNP3imB1wy-140" style="edgeStyle=orthogonalEdgeStyle;rounded=0;orthogonalLoop=1;jettySize=auto;html=1;entryX=0;entryY=0.5;entryDx=0;entryDy=0;" edge="1" parent="1" source="EsuTO7CVdzKNP3imB1wy-132" target="EsuTO7CVdzKNP3imB1wy-128">
          <mxGeometry relative="1" as="geometry" />
        </mxCell>
        <mxCell id="EsuTO7CVdzKNP3imB1wy-141" value="1000" style="text;html=1;align=center;verticalAlign=middle;whiteSpace=wrap;rounded=0;" vertex="1" parent="1">
          <mxGeometry x="20" y="1269" width="60" height="30" as="geometry" />
        </mxCell>
        <mxCell id="EsuTO7CVdzKNP3imB1wy-142" value="&lt;div style=&quot;color: #cccccc;background-color: #1f1f1f;font-family: Consolas, &#39;Courier New&#39;, monospace;font-weight: normal;font-size: 14px;line-height: 19px;white-space: pre;&quot;&gt;&lt;div&gt;&lt;span style=&quot;color: #4ec9b0;&quot;&gt;gcov_unsigned_t&lt;/span&gt;&lt;span style=&quot;color: #cccccc;&quot;&gt; &lt;/span&gt;&lt;span style=&quot;color: #9cdcfe;&quot;&gt;gcov_buf&lt;/span&gt;&lt;span style=&quot;color: #cccccc;&quot;&gt;[&lt;/span&gt;&lt;span style=&quot;color: #b5cea8;&quot;&gt;81920&lt;/span&gt;&lt;span style=&quot;color: #cccccc;&quot;&gt;];&lt;/span&gt;&lt;/div&gt;&lt;/div&gt;" style="text;whiteSpace=wrap;html=1;" vertex="1" parent="1">
          <mxGeometry x="40" y="1500" width="280" height="40" as="geometry" />
        </mxCell>
        <mxCell id="EsuTO7CVdzKNP3imB1wy-143" value="&lt;div style=&quot;color: #cccccc;background-color: #1f1f1f;font-family: Consolas, &#39;Courier New&#39;, monospace;font-weight: normal;font-size: 14px;line-height: 19px;white-space: pre;&quot;&gt;&lt;div&gt;&lt;span style=&quot;color: #569cd6;&quot;&gt;static&lt;/span&gt;&lt;span style=&quot;color: #cccccc;&quot;&gt; &lt;/span&gt;&lt;span style=&quot;color: #4ec9b0;&quot;&gt;gcov_unsigned_t&lt;/span&gt;&lt;span style=&quot;color: #cccccc;&quot;&gt; &lt;/span&gt;&lt;span style=&quot;color: #9cdcfe;&quot;&gt;gcov_GcovIndex&lt;/span&gt;&lt;span style=&quot;color: #cccccc;&quot;&gt; &lt;/span&gt;&lt;span style=&quot;color: #d4d4d4;&quot;&gt;=&lt;/span&gt;&lt;span style=&quot;color: #cccccc;&quot;&gt; &lt;/span&gt;&lt;span style=&quot;color: #b5cea8;&quot;&gt;0&lt;/span&gt;&lt;span style=&quot;color: #cccccc;&quot;&gt;;&lt;/span&gt;&lt;/div&gt;&lt;/div&gt;" style="text;whiteSpace=wrap;html=1;" vertex="1" parent="1">
          <mxGeometry x="40" y="1550" width="360" height="40" as="geometry" />
        </mxCell>
        <mxCell id="EsuTO7CVdzKNP3imB1wy-151" style="edgeStyle=orthogonalEdgeStyle;rounded=0;orthogonalLoop=1;jettySize=auto;html=1;" edge="1" parent="1" source="EsuTO7CVdzKNP3imB1wy-145" target="EsuTO7CVdzKNP3imB1wy-146">
          <mxGeometry relative="1" as="geometry" />
        </mxCell>
        <mxCell id="EsuTO7CVdzKNP3imB1wy-145" value="&lt;div style=&quot;color: #cccccc;background-color: #1f1f1f;font-family: Consolas, &#39;Courier New&#39;, monospace;font-weight: normal;font-size: 14px;line-height: 19px;white-space: pre;&quot;&gt;&lt;div style=&quot;line-height: 19px;&quot;&gt;&lt;span style=&quot;color: #569cd6;&quot;&gt;static&lt;/span&gt; &lt;span style=&quot;color: #4ec9b0;&quot;&gt;GcovInfo&lt;/span&gt; &lt;span style=&quot;color: #d4d4d4;&quot;&gt;*&lt;/span&gt;&lt;span style=&quot;color: #9cdcfe;&quot;&gt;gcov_headGcov&lt;/span&gt; &lt;span style=&quot;color: #d4d4d4;&quot;&gt;=&lt;/span&gt; &lt;span style=&quot;color: #569cd6;&quot;&gt;NULL&lt;/span&gt;;&lt;/div&gt;&lt;/div&gt;" style="text;whiteSpace=wrap;html=1;" vertex="1" parent="1">
          <mxGeometry x="300" y="1390" width="310" height="40" as="geometry" />
        </mxCell>
        <mxCell id="EsuTO7CVdzKNP3imB1wy-149" style="edgeStyle=orthogonalEdgeStyle;rounded=0;orthogonalLoop=1;jettySize=auto;html=1;" edge="1" parent="1" source="EsuTO7CVdzKNP3imB1wy-146" target="EsuTO7CVdzKNP3imB1wy-147">
          <mxGeometry relative="1" as="geometry" />
        </mxCell>
        <mxCell id="EsuTO7CVdzKNP3imB1wy-146" value="&lt;span style=&quot;color: rgb(78, 201, 176); font-family: Consolas, &amp;quot;Courier New&amp;quot;, monospace; font-size: 14px; white-space: pre; background-color: rgb(31, 31, 31);&quot;&gt;GcovInfo&lt;/span&gt;" style="rounded=1;whiteSpace=wrap;html=1;" vertex="1" parent="1">
          <mxGeometry x="690" y="1400" width="120" height="60" as="geometry" />
        </mxCell>
        <mxCell id="EsuTO7CVdzKNP3imB1wy-150" style="edgeStyle=orthogonalEdgeStyle;rounded=0;orthogonalLoop=1;jettySize=auto;html=1;" edge="1" parent="1" source="EsuTO7CVdzKNP3imB1wy-147" target="EsuTO7CVdzKNP3imB1wy-148">
          <mxGeometry relative="1" as="geometry" />
        </mxCell>
        <mxCell id="EsuTO7CVdzKNP3imB1wy-147" value="&lt;span style=&quot;color: rgb(78, 201, 176); font-family: Consolas, &amp;quot;Courier New&amp;quot;, monospace; font-size: 14px; white-space: pre; background-color: rgb(31, 31, 31);&quot;&gt;GcovInfo&lt;/span&gt;" style="rounded=1;whiteSpace=wrap;html=1;" vertex="1" parent="1">
          <mxGeometry x="870" y="1410" width="120" height="60" as="geometry" />
        </mxCell>
        <mxCell id="EsuTO7CVdzKNP3imB1wy-148" value="&lt;span style=&quot;color: rgb(78, 201, 176); font-family: Consolas, &amp;quot;Courier New&amp;quot;, monospace; font-size: 14px; white-space: pre; background-color: rgb(31, 31, 31);&quot;&gt;GcovInfo&lt;/span&gt;" style="rounded=1;whiteSpace=wrap;html=1;" vertex="1" parent="1">
          <mxGeometry x="1060" y="1420" width="120" height="60" as="geometry" />
        </mxCell>
        <mxCell id="EsuTO7CVdzKNP3imB1wy-152" value="文件名" style="rounded=1;whiteSpace=wrap;html=1;" vertex="1" parent="1">
          <mxGeometry x="510" y="1580" width="70" height="60" as="geometry" />
        </mxCell>
        <mxCell id="EsuTO7CVdzKNP3imB1wy-153" value="length" style="rounded=1;whiteSpace=wrap;html=1;" vertex="1" parent="1">
          <mxGeometry x="580" y="1580" width="80" height="60" as="geometry" />
        </mxCell>
        <mxCell id="EsuTO7CVdzKNP3imB1wy-154" value="content of buffer" style="rounded=1;whiteSpace=wrap;html=1;" vertex="1" parent="1">
          <mxGeometry x="660" y="1580" width="100" height="60" as="geometry" />
        </mxCell>
        <mxCell id="EsuTO7CVdzKNP3imB1wy-155" value="文件名" style="rounded=1;whiteSpace=wrap;html=1;" vertex="1" parent="1">
          <mxGeometry x="860" y="1580" width="70" height="60" as="geometry" />
        </mxCell>
        <mxCell id="EsuTO7CVdzKNP3imB1wy-156" value="length" style="rounded=1;whiteSpace=wrap;html=1;" vertex="1" parent="1">
          <mxGeometry x="930" y="1580" width="80" height="60" as="geometry" />
        </mxCell>
        <mxCell id="EsuTO7CVdzKNP3imB1wy-157" value="content of buffer" style="rounded=1;whiteSpace=wrap;html=1;" vertex="1" parent="1">
          <mxGeometry x="1010" y="1580" width="100" height="60" as="geometry" />
        </mxCell>
        <mxCell id="EsuTO7CVdzKNP3imB1wy-158" value="文件名" style="rounded=1;whiteSpace=wrap;html=1;" vertex="1" parent="1">
          <mxGeometry x="1190" y="1570" width="70" height="60" as="geometry" />
        </mxCell>
        <mxCell id="EsuTO7CVdzKNP3imB1wy-159" value="length" style="rounded=1;whiteSpace=wrap;html=1;" vertex="1" parent="1">
          <mxGeometry x="1260" y="1570" width="80" height="60" as="geometry" />
        </mxCell>
        <mxCell id="EsuTO7CVdzKNP3imB1wy-160" value="content of buffer" style="rounded=1;whiteSpace=wrap;html=1;" vertex="1" parent="1">
          <mxGeometry x="1340" y="1570" width="100" height="60" as="geometry" />
        </mxCell>
      </root>
    </mxGraphModel>
  </diagram>
</mxfile>
